<svg version="1" xmlns="http://www.w3.org/2000/svg" width="682.667" height="682.667" viewBox="0 0 512.000000 512.000000"><path d="M39.3 17.5c-4.8 1.5-11.8 6.1-15 9.9-1.3 1.4-3.5 4.9-5 7.8l-2.8 5.3v99c0 78.2.3 100.4 1.3 105.5 5.2 25.5 18.5 43.1 40.9 54.4 9.5 4.7 22.6 8.8 32.3 10 2.5.3 5.6.8 6.9 1.1 6.5 1.3 30.3 1.6 33.1.5 3.8-1.6 5.6-6 4.1-9.9-1.4-3.3-4-4.7-10.7-5.7-6.9-1-13.1-4.1-18.1-9.2-16.4-16.6-12-40.1 9.7-51l5.5-2.7 59.3-.3 59.2-.3V248h-36.5c-24.9 0-37.2.4-38.9 1.1-3.5 1.7-4.9 5.6-4.2 12.9 1.3 13.4 6.1 26 14.3 37.1l4.5 6.2-1.2 5.6c-1.6 6.9-2 22.7-.8 29 .5 2.5 1.1 5.7 1.4 7.1 1.1 6.2 8.2 20.9 13.3 27.9 7.4 10.1 17.6 18.8 27.9 24 3.8 1.9 4.2 2.4 3.6 4.9-1 4.3-3.2 7-7.3 9.1-3.6 1.9-7 2.5-20 3.6-10.8.9-24 9.7-30.3 20-4.7 7.8-5.7 13.7-5.8 37.5l-.1 22h192.3l-.4-24.3-.3-24.2-3.1-6.6c-4.3-9-12.1-17-20.4-20.8-6.2-2.8-9-3.4-22.4-4.7-9.8-.9-15.4-4.7-17-11.6-.6-2.5-.2-3 4.6-5.4 9.3-4.7 19.3-13.2 25.6-21.9 2-2.8 3.9-5.2 4.2-5.5 1.3-1.2 6.3-11.5 8.1-16.7 3.3-9.5 4.2-15.2 4.5-28 .2-13.6-1.2-23.1-5-32.3l-2.4-6.1 31.1.3 31.2.3 5.6 2.8c7.1 3.4 13.8 10 16.9 16.3 3.2 6.6 3.3 17.8.2 24.5-4.9 10.4-16.1 18.6-26.6 19.5-7.8.7-12 5.6-9.6 11.3 1.9 4.6 5.2 5.4 20.2 4.7 19-1 23.5-1.6 35.3-4.7 30.1-7.9 49.5-24.3 58.3-49.4 2.1-6 2.7-8.4 4.2-18.5.5-3 .8-50.7.7-106l-.2-100.5-2.5-5c-3.1-6.4-10.1-13.4-16.5-16.5l-5-2.5-83.4-.3c-45.9-.1-83.6-.4-83.7-.5-.2-.1-.4-4.8-.5-10.3-.2-15.2-4.5-24.6-14.3-31.3-9.2-6.4-2.8-6.1-130.1-6-93.2.1-116.8.4-120.2 1.4z"/></svg>